<?xml version="1.0" encoding="UTF-8"?>
<svg id="Camada_1" data-name="Camada 1" xmlns="http://www.w3.org/2000/svg" xmlns:xlink="http://www.w3.org/1999/xlink"   width="1315.21"
    height="292.64" viewBox="0 0 1315.21 292.64">
  <defs>
    <style>
      .cls-1 {
        clip-path: url(#clippath-4);
      }

      .cls-1, .cls-2, .cls-3, .cls-4, .cls-5, .cls-6, .cls-7, .cls-8, .cls-9 {
        fill: none;
      }

      .cls-2 {
        clip-path: url(#clippath-2);
      }

      .cls-3 {
        clip-path: url(#clippath-6);
      }

      .cls-10, .cls-11 {
        fill: #044677;
      }

      .cls-12, .cls-13, .cls-14, .cls-11 {
        fill-rule: evenodd;
      }

      .cls-12, .cls-15 {
        fill: #919191;
      }

      .cls-13 {
        fill: #c01821;
      }

      .cls-4 {
        clip-path: url(#clippath-7);
      }

      .cls-5 {
        clip-path: url(#clippath-5);
      }

      .cls-6 {
        clip-path: url(#clippath-3);
      }

      .cls-14 {
        fill: #eb7504;
      }

      .cls-8 {
        clip-path: url(#clippath);
      }

      .cls-9 {
        clip-path: url(#clippath-1);
      }
    </style>
    <clipPath id="clippath">
      <rect class="cls-7" y="0" width="1315.21" height="292.64"/>
    </clipPath>
    <clipPath id="clippath-1">
      <rect class="cls-7" y="0" width="1315.21" height="292.64"/>
    </clipPath>
    <clipPath id="clippath-2">
      <path class="cls-7" d="m816.99,55.77c-8.97,9.34-13.43,21.54-13.43,36.66,0,5.08.74,9.84,2.23,14.34,1.49,4.47,3.76,8.68,6.74,12.65,6.61,9.05,17.31,15.54,32.06,19.47,1.53.42,2.64.7,3.26.87,12.36,3.8,20.5,7.86,24.34,12.24,3.89,4.34,5.83,10.54,5.83,18.52,0,9.13-2.64,16.41-7.93,21.86-5.29,5.46-12.31,8.18-21.12,8.18-7.98,0-14.5-2.73-19.5-8.18-5-5.41-7.69-12.69-8.1-21.82h-22.89c.17,16.29,4.96,29.43,14.34,39.39,9.42,9.96,21.61,14.96,36.65,14.96,15.95,0,28.8-5.21,38.47-15.62,9.71-10.42,14.54-24.14,14.54-41.16,0-11.66-3.02-21.62-9.01-29.93-6.03-8.31-14.83-14.67-26.49-19.01-2.81-.95-6.86-2.15-12.11-3.51-11.36-2.98-18.8-6.53-22.27-10.67-1.69-2.02-2.94-4.17-3.76-6.53-.79-2.35-1.2-4.84-1.2-7.52,0-7.56,2.19-13.76,6.61-18.6,4.38-4.8,10.08-7.2,17.11-7.2,6.57,0,11.98,2.15,16.32,6.49,4.3,4.34,6.65,10,7.06,17.03h23.84c-.86-14.55-5.45-26-13.76-34.35-8.27-8.35-19.13-12.52-32.6-12.52-14.55,0-26.28,4.67-35.25,13.97"/>
    </clipPath>
    <clipPath id="clippath-3">
      <path class="cls-7" d="m1301.03,118.21c-4.06,2.26-7.68,5.74-10.82,10.4v-12.2h-17.88v105.76h19.03v-58.84c0-9.74,1.84-16.8,5.55-21.2,3.67-4.4,9.77-6.89,18.3-7.55v-19.89c-5.38.06-10.11,1.25-14.17,3.51"/>
    </clipPath>
    <clipPath id="clippath-4">
      <path class="cls-7" d="m1185.93,138.82c6.14-4.89,13.36-7.35,21.69-7.35s15.09,2.39,20.93,7.18c5.84,4.76,9.94,11.52,12.3,20.25h-67.55c2.3-8.46,6.53-15.16,12.63-20.08m-.52-21.53c-6.59,2.92-12.53,7.26-17.78,13.03-4.92,5.31-8.66,11.22-11.18,17.69-2.53,6.46-3.81,13.42-3.81,20.87s1.38,14.21,4.17,21.1c2.79,6.89,6.66,12.93,11.58,18.11,5.28,5.51,11.12,9.65,17.59,12.41,6.5,2.76,13.61,4.14,21.45,4.14,11.58,0,21.76-3.12,30.51-9.32,8.73-6.2,15.55-15.2,20.4-26.91h-21.42c-3.08,5.51-7.18,9.78-12.33,12.76-5.19,3.02-10.89,4.53-17.16,4.53-8.79,0-16.37-2.73-22.73-8.21-6.36-5.48-10.37-12.67-11.98-21.49h89.01v-2.99c0-7.35-.72-13.91-2.2-19.65-1.48-5.74-3.77-10.99-6.83-15.82-5.21-7.74-11.78-13.78-19.75-18.11-8-4.33-16.63-6.5-25.92-6.5-7.81,0-15.03,1.44-21.62,4.36"/>
    </clipPath>
    <clipPath id="clippath-5">
      <path class="cls-7" d="m1062.34,195.49c-7.15-7.29-10.73-15.79-10.73-25.53,0-10.43,3.51-19.36,10.53-26.71,7.02-7.39,15.39-11.06,25.13-11.06s18.43,3.55,25.55,10.63c7.12,7.06,10.66,15.66,10.66,25.79,0,10.77-3.51,19.76-10.56,26.98-7.06,7.18-15.65,10.8-25.85,10.8-9.35,0-17.58-3.65-24.74-10.9m-29.16-113.31v139.99h19.22v-12.99c4.85,5.05,10.3,8.89,16.27,11.48,6.01,2.59,12.4,3.91,19.19,3.91,15.95,0,29.17-5.32,39.7-15.92,10.5-10.6,15.75-23.89,15.75-39.83,0-7.39-1.31-14.41-3.94-21.07-2.62-6.66-6.4-12.57-11.35-17.69-5.31-5.57-11.12-9.68-17.42-12.33-6.34-2.66-13.52-4-21.59-4-7.18,0-13.81,1.28-19.95,3.84-6.1,2.56-11.74,6.46-16.86,11.65v-47.02h-19.03Z"/>
    </clipPath>
    <clipPath id="clippath-6">
      <path class="cls-7" d="m942.52,195.52c-7.09-7.25-10.63-16.21-10.63-26.91s3.54-18.8,10.63-25.86c7.05-7.05,15.59-10.57,25.59-10.57s18.14,3.71,25.23,11.09c7.05,7.42,10.6,16.31,10.6,26.68,0,9.74-3.57,18.24-10.69,25.53-7.15,7.25-15.39,10.9-24.74,10.9-10.27,0-18.93-3.61-25.99-10.87m2.27-77.8c-6.3,2.66-12.1,6.76-17.42,12.33-4.89,5.06-8.63,10.93-11.25,17.6-2.63,6.66-3.94,13.72-3.94,21.17,0,15.95,5.25,29.23,15.75,39.83,10.53,10.6,23.72,15.92,39.6,15.92,6.8,0,13.19-1.32,19.19-3.91,5.97-2.59,11.42-6.43,16.28-11.48v12.99h19.22v-105.76h-19.22v12.8c-4.99-5.18-10.53-9.09-16.64-11.65-6.07-2.56-12.73-3.84-19.97-3.84-8.08,0-15.26,1.35-21.59,4"/>
    </clipPath>
    <clipPath id="clippath-7">
      <rect class="cls-7" y="0" width="1315.21" height="292.64"/>
    </clipPath>
  </defs>
  <g id="Grupo_Saber_colorido" data-name="Grupo Saber colorido">
    <g class="cls-8">
      <polygon class="cls-10" points="33.92 113.08 67.83 138.61 33.92 164.15 0 189.69 62.22 164.15 124.43 138.61 62.22 113.08 0 87.54 33.92 113.08"/>
      <polygon class="cls-13" points="138.18 209.41 112.64 243.33 87.11 277.26 112.64 215.03 138.18 152.8 163.71 215.03 189.24 277.26 163.71 243.33 138.18 209.41"/>
      <polygon class="cls-12" points="65.99 99.06 65.99 65.05 99.99 65.05 127.6 126.67 65.99 99.06"/>
      <g class="cls-9">
        <path class="cls-12" d="m48.72,47.77c3.74-3.75,9.82-3.75,13.58,0,3.74,3.75,3.74,9.83,0,13.58-3.75,3.75-9.83,3.75-13.58,0-3.75-3.75-3.75-9.84,0-13.58"/>
        <polygon class="cls-12" points="99.99 212.17 65.99 212.17 65.99 178.17 127.59 150.56 99.99 212.17"/>
        <path class="cls-12" d="m48.72,229.46c-3.75-3.75-3.76-9.84,0-13.58,3.74-3.75,9.82-3.75,13.58,0,3.74,3.75,3.74,9.83,0,13.58-3.75,3.75-9.83,3.75-13.58,0"/>
        <polygon class="cls-14" points="138.18 67.85 112.64 33.93 87.11 0 112.64 62.23 138.18 124.46 163.71 62.23 189.24 0 163.71 33.93 138.18 67.85"/>
        <path class="cls-13" d="m138.18,264.41c8.35,0,15.11-6.77,15.11-15.12s-6.77-15.12-15.11-15.12c-8.35,0-15.12,6.77-15.12,15.12s6.77,15.12,15.12,15.12"/>
        <path class="cls-14" d="m138.18,44.96c8.35,0,15.11-6.77,15.11-15.12s-6.77-15.12-15.11-15.12c-8.35,0-15.12,6.77-15.12,15.12s6.77,15.12,15.12,15.12"/>
        <path class="cls-11" d="m23.32,153.75c8.35,0,15.11-6.77,15.11-15.12s-6.77-15.12-15.11-15.12c-8.35,0-15.12,6.77-15.12,15.12s6.77,15.12,15.12,15.12"/>
      </g>
      <g class="cls-2">
        <rect class="cls-10" x="798.48" y="41.81" width="104.01" height="183.1"/>
      </g>
      <g class="cls-6">
        <rect class="cls-10" x="1272.33" y="114.69" width="42.88" height="107.47"/>
      </g>
      <g class="cls-1">
        <rect class="cls-10" x="1152.63" y="112.93" width="109.08" height="111.7"/>
      </g>
      <g class="cls-5">
        <rect class="cls-10" x="1033.17" y="82.18" width="110.13" height="142.39"/>
      </g>
      <g class="cls-3">
        <rect class="cls-10" x="912.18" y="113.71" width="110.03" height="110.85"/>
      </g>
      <g class="cls-4">
        <path class="cls-15" d="m285.35,193.45c6.09-1.97,11.22-4.35,15.39-7.15v-39.98c0-1.29.4-2.39,1.19-3.29.79-.91,1.8-1.36,3.01-1.36h16.01c1.14,0,2.12.45,2.95,1.36.83.91,1.25,2.01,1.25,3.29v54.51c0,.91-.23,1.82-.68,2.72-.45.91-.98,1.59-1.59,2.04-6.51,4.54-14.95,8.41-25.33,11.59-10.37,3.18-19.84,4.77-28.39,4.77-15.9,0-30.47-3.8-43.72-11.41-13.25-7.61-23.72-17.96-31.4-31.06-7.69-13.1-11.53-27.56-11.53-43.38s3.84-30.17,11.53-43.27c7.68-13.1,18.13-23.45,31.35-31.06,13.21-7.61,27.77-11.41,43.67-11.41,8.63,0,17.64,1.49,27.03,4.49,9.39,2.99,17.53,7.29,24.42,12.89,1.21.99,1.82,2.16,1.82,3.52,0,.98-.27,1.78-.8,2.39l-9.77,14.65c-.68,1.14-1.7,1.71-3.07,1.71-1.06,0-2.01-.38-2.84-1.14-5.15-4.39-11.04-7.65-17.66-9.77-6.63-2.12-12.97-3.18-19.02-3.18-11.21,0-21.46,2.67-30.78,8.01-9.31,5.34-16.68,12.61-22.09,21.81-5.41,9.2-8.12,19.33-8.12,30.38s2.71,21.29,8.12,30.49c5.41,9.2,12.77,16.47,22.09,21.81,9.31,5.34,19.57,8.01,30.78,8.01,4.7,0,10.09-.98,16.19-2.95"/>
        <path class="cls-15" d="m430.1,128.72c0,.68-.23,1.36-.68,2.04l-8.52,13.17c-.53.99-1.36,1.48-2.5,1.48-.68,0-1.21-.19-1.59-.57l-.8-.68c-2.12-1.67-4.58-2.92-7.38-3.75-2.8-.83-5.53-1.25-8.17-1.25-4.54,0-8.73,1.08-12.55,3.24-3.82,2.16-6.85,5.09-9.08,8.8-2.24,3.71-3.35,7.76-3.35,12.15v52.36c0,2.2-1.06,3.29-3.18,3.29h-18.17c-2.12,0-3.18-1.1-3.18-3.29v-92.11c0-.98.28-1.76.85-2.33.57-.57,1.38-.85,2.44-.85h14.42c1.82,0,2.88.68,3.18,2.04l2.04,11.13c3.48-5,7.93-8.95,13.35-11.87,5.41-2.91,11.07-4.37,16.98-4.37,4.85,0,9.44.8,13.8,2.39,4.35,1.59,8.01,3.86,10.96,6.81.76.53,1.14,1.25,1.14,2.16"/>
        <path class="cls-15" d="m536.4,123.83v92.11c0,.99-.28,1.76-.85,2.33s-1.38.85-2.44.85h-14.54c-1.74,0-2.77-.72-3.07-2.16l-1.93-10.11c-3.64,4.77-8.16,8.52-13.57,11.24-5.41,2.73-11.23,4.09-17.43,4.09-8.1,0-15.15-1.81-21.12-5.45-5.98-3.64-10.56-8.82-13.74-15.56-3.18-6.74-4.77-14.65-4.77-23.74v-53.49c0-1.06.3-1.87.91-2.44.61-.57,1.4-.85,2.38-.85h18.17c1.06,0,1.87.28,2.44.85.57.57.85,1.38.85,2.44v53.72c0,3.86.97,7.38,2.9,10.56,1.93,3.18,4.54,5.7,7.84,7.55,3.29,1.86,6.87,2.78,10.73,2.78,4.09,0,7.85-.96,11.3-2.9,3.45-1.93,6.19-4.62,8.23-8.06,2.05-3.44,3.07-7.32,3.07-11.64v-52.13c0-2.2,1.06-3.29,3.18-3.29h18.29c2.12,0,3.18,1.1,3.18,3.29"/>
        <path class="cls-15" d="m645.88,124.29c7.19,4.54,12.81,10.79,16.86,18.74,4.05,7.95,6.08,16.85,6.08,26.69s-2.03,18.74-6.08,26.69c-4.05,7.95-9.67,14.2-16.86,18.74-7.19,4.54-15.26,6.81-24.19,6.81-6.82,0-13.06-1.36-18.74-4.09-5.68-2.73-10.56-6.63-14.65-11.7l.23,58.26c0,1.06-.29,1.87-.85,2.44s-1.38.85-2.44.85h-18.28c-.91,0-1.65-.3-2.22-.91-.57-.61-.85-1.4-.85-2.38V123.83c0-.98.28-1.78.85-2.38.57-.61,1.31-.91,2.22-.91h14.99c1.51,0,2.39.61,2.61,1.82l2.04,13.17c4.01-5.75,9.03-10.2,15.05-13.34,6.02-3.14,12.66-4.71,19.93-4.71,9.01,0,17.11,2.27,24.3,6.81m-14.76,69.85c4.24-2.5,7.61-5.91,10.11-10.22,2.5-4.32,3.75-9.01,3.75-14.08s-1.25-10.01-3.75-14.37c-2.5-4.35-5.89-7.8-10.16-10.33-4.28-2.54-8.96-3.81-14.03-3.81s-10.01,1.27-14.37,3.81c-4.36,2.54-7.8,5.98-10.34,10.33-2.54,4.36-3.8,9.14-3.8,14.37s1.27,9.86,3.8,14.14c2.54,4.28,6,7.66,10.39,10.16,4.39,2.5,9.2,3.75,14.43,3.75s9.73-1.25,13.97-3.75"/>
        <path class="cls-15" d="m688.19,143.54c4.73-7.99,11.15-14.31,19.25-18.97,8.1-4.66,17-6.99,26.69-6.99s18.48,2.33,26.58,6.99c8.1,4.66,14.5,10.98,19.19,18.97,4.7,7.99,7.04,16.75,7.04,26.29s-2.37,18.29-7.1,26.24c-4.73,7.95-11.13,14.25-19.19,18.91-8.06,4.66-16.9,6.98-26.52,6.98s-18.59-2.31-26.69-6.93c-8.1-4.62-14.52-10.92-19.25-18.91-4.73-7.99-7.1-16.75-7.1-26.29s2.37-18.3,7.1-26.29m21.41,40.38c2.5,4.31,5.91,7.74,10.22,10.28s9.05,3.8,14.2,3.8,9.9-1.27,14.25-3.8c4.35-2.54,7.78-5.94,10.28-10.22,2.5-4.27,3.75-8.99,3.75-14.14s-1.25-9.9-3.75-14.25c-2.5-4.35-5.92-7.8-10.28-10.33-4.36-2.54-9.1-3.81-14.25-3.81s-9.88,1.27-14.2,3.81c-4.31,2.54-7.72,5.98-10.22,10.33-2.5,4.36-3.75,9.1-3.75,14.25s1.25,9.77,3.75,14.08"/>
      </g>
    </g>
  </g>
</svg>